#!OML:ASF E:\acrobat2\Project_11_07_03\Capture day 1\Session 1\Acrobat.ASF
:FULLY-SPECIFIED
:DEGREES
209
root 10.8803 17.0596 -4.9532 -3.32408 -76.567 21.696
lowerback 11.3179 11.1055 5.67969
upperback 4.24959 15.07 -5.33724
thorax 1.26799 7.7763 -9.89529
lowerneck -7.10701 -0.43597 0.204113
upperneck -2.69498 -0.670358 -6.82858
head 0.340399 -0.428537 -2.19864
rclavicle -3.18055e-015 5.88403e-014
rhumerus 43.1225 51.8881 -61.4329
rradius 68.5152
rwrist 0.819918
rhand -12.213 -29.4239
rfingers 7.12502
rthumb 13.8518 -58.9427
lclavicle -3.18055e-015 5.88403e-014
lhumerus -51.1783 -5.257 34.1354
lradius 21.5427
lwrist 16.561
lhand -23.7931 3.70575
lfingers 7.12502
lthumb 2.67721 33.6687
rfemur -36.6365 -6.32658 12.6411
rtibia 50.7521
rfoot -41.7614 -26.0302
rtoes -4.00938
lfemur -47.9349 -3.42157 10.0736
ltibia 53.8193
lfoot 12.735 -2.21322
ltoes 40.7034
210
root 10.9777 16.8923 -4.69425 -1.26308 -77.5575 19.8039
lowerback 11.2678 10.6518 5.89281
upperback 4.39646 14.4828 -4.91498
thorax 1.26007 7.46909 -9.53061
lowerneck -7.2636 -0.316736 0.168151
upperneck -2.85096 -0.521859 -7.01012
head 0.323829 -0.357973 -2.24882
rclavicle 7.31528e-014 2.54444e-014
rhumerus 37.5171 49.4932 -66.4338
rradius 63.8216
rwrist 1.71755
rhand -11.0681 -30.9384
rfingers 7.12502
rthumb 14.9548 -60.3785
lclavicle 7.31528e-014 2.54444e-014
lhumerus -50.4001 -4.20533 35.2468
lradius 22.8518
lwrist 17.0749
lhand -24.499 2.84658
lfingers 7.12502
lthumb 1.99543 32.817
rfemur -38.2213 -2.68022 11.1795
rtibia 53.0858
rfoot -42.4648 -24.0412
rtoes -2.69331
lfemur -48.564 -1.95615 10.1224
ltibia 55.3073
lfoot 13.4295 -1.91996
ltoes 41.3841
211
root 11.0713 16.7426 -4.42818 2.43785 -78.5596 16.5449
lowerback 10.9525 10.2057 6.21986
upperback 4.39283 13.9175 -4.5744
thorax 1.29346 7.1791 -9.27152
lowerneck -7.68544 -0.329674 0.73893
upperneck -2.71324 -0.575162 -7.38646
head 0.438865 -0.407176 -2.48319
rclavicle -3.4191e-014 -3.49861e-014
rhumerus 32.3253 46.1781 -71.0985
rradius 58.7501
rwrist 2.05096
rhand -10.2437 -31.9004
rfingers 7.12502
rthumb 15.749 -61.2797
lclavicle -3.4191e-014 -3.49861e-014
lhumerus -49.591 -3.4576 36.4183
lradius 24.3304
lwrist 17.8761
lhand -24.703 2.17399
lfingers 7.12502
lthumb 1.79841 32.1462
rfemur -40.2155 -0.662 10.9888
rtibia 54.5639
rfoot -36.5905 -31.1215
rtoes -29.4112
lfemur -49.3538 -0.297429 10.2476
ltibia 56.9042
lfoot 13.6988 -1.34486
ltoes 42.789
212
root 11.1586 16.6095 -4.15497 6.38137 -79.6801 13.1087
lowerback 10.5656 9.81086 6.29693
upperback 4.31654 13.3928 -4.17615
thorax 1.2236 6.89536 -8.82307
lowerneck -7.58341 -0.436247 1.00692
upperneck -2.86659 -0.758221 -7.60606
head 0.364915 -0.500816 -2.60869
rclavicle 1.36764e-013 -3.18055e-014
rhumerus 27.6334 41.9098 -75.0877
rradius 53.5388
rwrist 2.93805
rhand -9.63482 -36.9877
rfingers 7.12502
rthumb 16.3353 -66.3198
lclavicle 1.36764e-013 -3.18055e-014
lhumerus -48.9429 -2.91769 37.8946
lradius 25.9019
lwrist 18.6707
lhand -24.9936 2.47892
lfingers 7.12502
lthumb 1.51771 32.4533
rfemur -41.731 2.44893 9.47588
rtibia 55.7327
rfoot -40.6314 -26.0737
rtoes -14.7697
lfemur -49.9566 1.42795 10.0845
ltibia 58.5035
lfoot 13.487 -1.11249
ltoes 43.5681
213
root 11.245 16.4962 -3.87586 12.2782 -80.6951 7.63625
lowerback 10.3601 9.38282 6.4389
upperback 4.20046 12.8377 -3.62698
thorax 0.994076 6.58622 -8.29488
lowerneck -7.07808 -0.592827 0.65646
upperneck -3.17579 -0.972798 -7.37567
head 0.171037 -0.588164 -2.46585
rclavicle -1.11319e-014 2.06736e-014
rhumerus 23.7555 36.8499 -78.1143
rradius 47.9704
rwrist 3.62633
rhand -9.39279 -37.1087
rfingers 7.12502
rthumb 16.5683 -66.4214
lclavicle -1.11319e-014 2.06736e-014
lhumerus -48.2038 -2.61141 39.686
lradius 27.3852
lwrist 19.3308
lhand -25.1216 0.973357
lfingers 7.12502
lthumb 1.39414 30.9485
rfemur -43.0628 4.10552 8.92522
rtibia 56.6884
rfoot -42.3205 -23.6556
rtoes -6.59074
lfemur -50.3741 3.12534 10.015
ltibia 60.0856
lfoot 12.8592 -1.62551
ltoes 45.0035
